<?xml version="1.0" encoding="UTF-8"?>
<svg id="Ebene_1" data-name="Ebene 1" xmlns="http://www.w3.org/2000/svg" viewBox="0 0 128 128">
  <defs>
    <style>
      .cls-1 {
        fill: #fff;
        fill-rule: evenodd;
        stroke-width: 0px;
      }
    </style>
  </defs>
  <path class="cls-1" d="M100.61,72.88c-1.06,5.12-5.79,18.27-20.85,25.38l-6.05-6.8-10.21,10.26c-11.78-.16-22.8-5.81-29.8-15.28,1.09.34,2.2.55,3.34.63,1.67.03,3.49-.58,3.49-3.39v-27.69c.08-2.52-1.89-4.64-4.42-4.72-.44-.01-.89.04-1.32.15-4.73,1.09-8.5,12.88-8.5,12.88-.11-11.02,4.64-21.53,12.98-28.74,5.42-4.69,12.06-7.75,19.15-8.84-5.16,2.94-8.06,7.74-8.06,11.76,0,6.48,3.9,5.69,5.05,4.74v37.38c.2.47.45.91.76,1.32,1.05,1.45,2.73,2.3,4.52,2.29,3.9,0,8.97-4.46,8.97-4.46v-30.26c0-3.08-2.32-6.79-4.64-8.07,0,0,4.3-.76,7.62,1.78.62-.76,1.29-1.49,1.98-2.18,7.75-7.6,15.04-9.76,21.12-10.84,0,0-11.05,8.68-11.05,20.33,0,8.66.22,29.79.22,29.79,4.1,3.96,10.19-1.76,15.7-7.4h0Z"/>
  <path class="cls-1" d="M64,2.38C29.97,2.38,2.38,29.97,2.38,64s27.59,61.62,61.62,61.62,61.62-27.59,61.62-61.62S98.03,2.38,64,2.38ZM64,123.15c-32.67,0-59.15-26.48-59.15-59.15,0-32.67,26.49-59.15,59.16-59.15,32.67,0,59.15,26.48,59.15,59.15s-26.48,59.15-59.15,59.15h0Z"/>
</svg>